<svg xmlns="http://www.w3.org/2000/svg"  viewBox="0 0 40 40" width="40px" height="40px"><path fill="#e8d47b" d="M22.735,30.028l6.283-5.386l6.406,4.881c-1.647,5.433-6.17,5.932-7.221,5.974L22.735,30.028z"/><path fill="#ba9b48" d="M29.037,25.285l5.804,4.422c-1.528,4.502-5.194,5.178-6.443,5.277l-4.928-4.928L29.037,25.285 M29,24l-7,6l6,6c0,0,0.013,0,0.038,0c0.518,0,6.186-0.15,7.962-6.667L29,24L29,24z"/><path fill="#839cb2" d="M9,33.5c-4.687,0-8.5-3.813-8.5-8.5s3.813-8.5,8.5-8.5s8.5,3.813,8.5,8.5S13.687,33.5,9,33.5z"/><path fill="#66798f" d="M9,17c4.411,0,8,3.589,8,8s-3.589,8-8,8s-8-3.589-8-8S4.589,17,9,17 M9,16c-4.971,0-9,4.029-9,9 s4.029,9,9,9c4.971,0,9-4.029,9-9S13.971,16,9,16L9,16z"/><path fill="#ffeea3" d="M12 32.5A1.5 1.5 0 1 0 12 35.5A1.5 1.5 0 1 0 12 32.5Z"/><path fill="#f5c276" d="M12,33c0.551,0,1,0.449,1,1s-0.449,1-1,1s-1-0.449-1-1S11.449,33,12,33 M12,32c-1.105,0-2,0.895-2,2 c0,1.105,0.895,2,2,2c1.105,0,2-0.895,2-2C14,32.895,13.105,32,12,32L12,32z"/><path fill="#ffeea3" d="M17,33.5C9.005,33.5,2.5,26.995,2.5,19S9.005,4.5,17,4.5S31.5,11.005,31.5,19S24.995,33.5,17,33.5z"/><path fill="#ba9b48" d="M17,5c7.72,0,14,6.28,14,14s-6.28,14-14,14S3,26.72,3,19S9.28,5,17,5 M17,4C8.716,4,2,10.716,2,19 s6.716,15,15,15c8.284,0,15-6.716,15-15S25.284,4,17,4L17,4z"/><path fill="#839cb2" d="M32.964,22.499C32.415,21.833,31.567,21.5,31,21.5c-4.514,0-7.546-3.056-7.546-7.604 c0-0.285,0.015-0.567,0.043-0.846l0.045-0.438l-0.43-0.1C19.281,11.629,16.5,8.329,16.5,4.667c0-0.048,0.001-0.105,0.003-0.167H18 c9.851,0,15.5,4.556,15.5,12.5C33.5,18.513,33.28,20.965,32.964,22.499z"/><path fill="#66798f" d="M18,5c9.673,0,15,4.262,15,12c0,1.289-0.155,3.129-0.371,4.536C32.064,21.171,31.44,21,31,21 c-4.215,0-7.046-2.855-7.046-7.104c0-0.262,0.014-0.529,0.041-0.794l0.09-0.878l-0.86-0.198C19.735,11.22,17.171,8.297,17.008,5 L18,5 M18,4c-0.67,0-1.973,0-1.973,0C16.016,4.175,16,4.489,16,4.667c0,4.114,3.156,7.446,7,8.333 c-0.03,0.295-0.046,0.593-0.046,0.896C22.954,18.682,26.214,22,31,22c0.571,0,2,0.579,2,2c0.625-1,1-5.129,1-7 C34,8.532,27.912,4,18,4L18,4z"/><path fill="#839cb2" d="M33.773,18.463c0.577-1.429,1.727-4.67,1.727-7.814c0-1.245,0.827-2.148,1.967-2.148 c1.159,0,2.033,0.924,2.033,2.148C39.5,11.418,39.332,17.912,33.773,18.463z"/><path fill="#66798f" d="M37.466,9C38.355,9,39,9.693,39,10.649c0,0.679-0.137,6.116-4.446,7.174 C35.17,16.137,36,13.362,36,10.649C36,9.855,36.459,9,37.466,9 M37.466,8C35.994,8,35,9.176,35,10.649C35,14.694,33,19,33,19 c6.462,0,7-6.879,7-8.351S38.939,8,37.466,8L37.466,8z"/><g><path fill="#fff9de" d="M9.035,25.5c-0.29,0-0.527-0.059-0.705-0.172c-0.465-0.311-0.759-0.845-0.818-1.497 c-0.077-0.839,0.24-1.739,0.81-2.294c0.678-0.659,1.719-1.037,2.857-1.037c0.428,0,0.842,0.057,1.197,0.164 c0.436,0.124,0.972,0.396,1.097,0.999c0.167,0.806-0.434,1.907-1.531,2.805l0,0C11.935,24.468,10.288,25.5,9.035,25.5L9.035,25.5z"/><path fill="#ba9b48" d="M11.178,21c0.38,0,0.744,0.049,1.069,0.148c0.646,0.183,0.714,0.51,0.736,0.618 c0.105,0.505-0.262,1.402-1.312,2.278C11.219,24.322,9.931,25,9.034,25c-0.132,0-0.315-0.016-0.418-0.082 c-0.443-0.296-0.575-0.779-0.607-1.133c-0.063-0.684,0.203-1.443,0.662-1.89C9.247,21.335,10.184,21,11.178,21 M11.178,20 c-1.115,0-2.351,0.348-3.205,1.18c-1.224,1.192-1.399,3.577,0.087,4.57C8.34,25.928,8.676,26,9.034,26 c1.433,0,3.224-1.145,3.224-1.145c2.186-1.788,2.361-4.073,0.262-4.669C12.123,20.066,11.662,20,11.178,20L11.178,20z"/></g><path fill="none" stroke="#ba9b48" stroke-miterlimit="10" d="M18.353 16.251c0 0 2.18 2.228 2.18 6.416s-3.325 6.667-3.325 6.667M21 15.487c-.659 0-3.451-.22-4.722 3.31"/><g><path fill="#36404d" d="M14.263,12.042c0.856,0.969,0.985,2.184,0.288,2.713c-0.697,0.529-1.957,0.172-2.814-0.797 s-0.985-2.184-0.288-2.713C12.147,10.716,13.406,11.073,14.263,12.042z"/></g><g><path fill="#36404d" d="M8.263,16.042c0.856,0.969,0.985,2.184,0.288,2.713c-0.697,0.529-1.957,0.172-2.814-0.797 c-0.856-0.969-0.985-2.184-0.288-2.713C6.147,14.716,7.406,15.073,8.263,16.042z"/></g><g><path fill="#ffeea3" d="M31 22.5A1.5 1.5 0 1 0 31 25.5A1.5 1.5 0 1 0 31 22.5Z"/><path fill="#f5c276" d="M31,23c0.551,0,1,0.449,1,1s-0.449,1-1,1s-1-0.449-1-1S30.449,23,31,23 M31,22c-1.105,0-2,0.895-2,2 c0,1.105,0.895,2,2,2c1.105,0,2-0.895,2-2C33,22.895,32.105,22,31,22L31,22z"/></g></svg>