<svg xmlns="http://www.w3.org/2000/svg"  viewBox="0 0 40 40" width="40px" height="40px"><path fill="#a16a4a" d="M34.147 14.99H35.147V26.304000000000002H34.147z" transform="rotate(45.001 34.647 20.646)"/><path fill="#e8d47b" d="M5.333,31.5c-1.93,0-3.5-1.57-3.5-3.5s1.57-3.5,3.5-3.5s3.5,1.57,3.5,3.5S7.263,31.5,5.333,31.5z"/><path fill="#ba9b48" d="M5.333,25c1.654,0,3,1.346,3,3s-1.346,3-3,3s-3-1.346-3-3S3.679,25,5.333,25 M5.333,24 c-2.209,0-4,1.791-4,4s1.791,4,4,4s4-1.791,4-4S7.542,24,5.333,24L5.333,24z"/><path fill="#ffeea3" d="M19,38.5c-8.588,0-12.5-4.925-12.5-9.5v-0.166l-0.1-0.133c-3.267-4.382-2.906-9.61-2.902-9.663 c-0.001-0.101-0.158-2.599,1.763-4.663C7.034,12.467,9.975,11.5,14,11.5h5c3.833,0.573,5.5,1.921,5.5,4.5 c0.029,0.393,0.324,3.513,2.075,4.389l0.253,0.126l0.238-0.151C27.958,19.799,28.972,19.5,30,19.5c3.032,0,5.5,2.468,5.5,5.5 s-2.468,5.5-5.5,5.5c-0.137,0-0.27-0.02-0.401-0.037l-0.718-0.083l-0.041,0.514C28.799,31.249,27.815,38.5,19,38.5z"/><path fill="#ba9b48" d="M18.925,12C22.529,12.546,24,13.708,24,16v0.039l0.003,0.039c0.03,0.382,0.352,3.759,2.349,4.757 l0.506,0.253l0.477-0.303C28.145,20.272,29.067,20,30,20c2.757,0,5,2.243,5,5s-2.243,5-5,5c-0.114,0-0.223-0.018-0.333-0.033 c-0.073-0.01-0.146-0.02-0.219-0.028l-1.041-0.116l-0.067,1.046l-0.002,0.035C28.264,31.434,27.188,38,19,38 c-8.245,0-12-4.665-12-9v-0.332l-0.198-0.266c-3.139-4.211-2.808-9.277-2.805-9.326l0.006-0.077l-0.006-0.077 c-0.002-0.023-0.156-2.277,1.618-4.194C7.289,12.918,10.11,12,14,12H18.925 M19,11h-5C2.375,11,3,19,3,19s-0.417,5.417,3,10 c0,4.333,3.611,10,13,10s10.333-8,10.333-8s0.003-0.042,0.004-0.067C29.558,30.958,29.773,31,30,31c3.314,0,6-2.686,6-6 s-2.686-6-6-6c-1.18,0-2.273,0.353-3.201,0.941C25.25,19.167,25,16,25,16C25,12.444,22,11.445,19,11L19,11z"/><path fill="#fff" d="M4.631,15.122C2.252,14.257,0.5,11.694,0.5,9c0-3.393,2.107-5.5,5.5-5.5 c1.446,0,3.632,0,4.678,0.882l0.36,0.304l0.324-0.341C13.006,2.616,16.004,1.5,19,1.5c4.687,0,8.5,2.916,8.5,6.5 c0,2.102-1.569,4.073-4.119,5.205c-0.868-0.844-2.235-1.415-4.071-1.699L13.333,11.5C8.209,11.5,5.78,13.395,4.631,15.122z"/><path fill="#788b9c" d="M19,2c4.411,0,8,2.692,8,6c0,1.821-1.337,3.548-3.53,4.613c-0.944-0.789-2.314-1.327-4.084-1.601 L19.31,11h-0.077h-5.9c-5.019,0-7.579,1.773-8.882,3.509C2.443,13.601,1,11.356,1,9c0-3.131,1.869-5,5-5 c1.29,0,3.449,0,4.355,0.764l0.72,0.607l0.649-0.682C13.255,3.081,16.179,2,19,2 M19,1c-3.212,0-6.321,1.235-8,3 C9.84,3.021,7.637,3,6,3C2.318,3,0,5.318,0,9c0,3.047,2.057,5.922,4.849,6.717C5.887,13.926,8.196,12,13.333,12h5.9 c2.208,0.342,3.386,1.052,4.022,1.801C26.086,12.656,28,10.49,28,8C28,4.318,24.155,1,19,1L19,1z"/><path fill="#839cb2" d="M24.936,18.226c-0.373-1.065-0.43-2.067-0.436-2.191c0-0.906-0.003-3.725-5.19-4.528L16,11.5 c-4.95,0-9.144,1.271-11.053,3.293L3.623,12.13C6.356,9.948,11.655,8.5,17,8.5c8.201,0,13.5,2.159,13.5,5.5 C30.5,15.519,28.381,17.119,24.936,18.226z"/><path fill="#66798f" d="M17,9c8.98,0,13,2.511,13,5c0,1.19-1.869,2.585-4.738,3.589c-0.227-0.833-0.26-1.526-0.261-1.536 c-0.004-2.769-1.893-4.465-5.615-5.041L19.31,11h-0.077H16c-3.829,0-8.407,0.801-10.91,2.957l-0.835-1.68 C6.983,10.298,11.962,9,17,9 M17,8C11.368,8,5.778,9.556,3,12l1.849,3.717C6.444,13.278,11.167,12,16,12h3.233 C24,12.738,24,15.191,24.001,16.056c0.009,0.215,0.094,1.522,0.639,2.784C28.287,17.749,31,15.99,31,14C31,10.686,26.389,8,17,8 L17,8z"/><path fill="#ffeea3" d="M19 8.5A1.5 1.5 0 1 0 19 11.5A1.5 1.5 0 1 0 19 8.5Z"/><path fill="#f5c276" d="M19,9c0.551,0,1,0.449,1,1s-0.449,1-1,1s-1-0.449-1-1S18.449,9,19,9 M19,8c-1.105,0-2,0.895-2,2 s0.895,2,2,2c1.105,0,2-0.895,2-2S20.105,8,19,8L19,8z"/><path fill="#36404d" d="M21 16A1 2 0 1 0 21 20A1 2 0 1 0 21 16Z"/><path fill="#b08159" d="M16,34.5c-2.776,0-3.946-3.137-4.978-5.903c-0.553-1.48-1.054-2.825-1.778-3.545 C10.066,24.792,11.358,24.5,13,24.5h0.45c2.307,0,5.665,0,8.419,0.691c-0.464,0.661-0.816,1.75-1.238,3.056 C19.73,31.033,18.609,34.5,16,34.5z"/><path fill="#a16a4a" d="M13.458,24v1h0.001c2.1,0,5.082,0,7.644,0.529c-0.344,0.698-0.632,1.588-0.948,2.565 C19.304,30.725,18.246,34,16,34c-2.251,0-3.331-2.418-4.509-5.578c-0.428-1.149-0.845-2.265-1.389-3.089 C10.85,25.154,11.832,25,13,25h0.225l0.232,0L13.458,24 M13.457,24c-0.155,0-0.308,0-0.457,0c-3.111,0-5,1-5,1 c2.75,0,2.639,10,8,10c4.889,0,4.972-10,7-10C20.101,24.025,16.327,24,13.457,24L13.457,24z"/><path fill="#f78f8f" d="M18.912,33.381C18.377,30.571,15.915,28,13.333,28c-1.006,0-1.937,0.332-2.74,0.877	c0.198,0.53,0.403,1.076,0.627,1.616c0.81,1.892,1.863,3.781,3.662,4.34c0.019,0.006,0.038,0.013,0.057,0.018	c0.135,0.04,0.277,0.069,0.421,0.093c0.035,0.006,0.067,0.014,0.102,0.019C15.636,34.986,15.814,35,16,35	C17.246,35,18.179,34.349,18.912,33.381z"/><g><path fill="#fff9de" d="M25.037,26.5c-0.93,0-1.888-0.176-2.771-0.51c-0.696-0.337-1.603-0.937-1.735-1.78 c-0.112-0.535,0.121-1.229,0.652-1.977c0.805-1.082,2.297-1.733,3.985-1.733c1.12,0,2.176,0.302,2.757,0.786 c0.347,0.29,0.539,0.707,0.57,1.239c0.071,1.214-0.686,2.711-1.435,3.502c-0.345,0.302-0.909,0.376-1.507,0.455 C25.402,26.493,25.22,26.5,25.037,26.5z"/><path fill="#ba9b48" d="M25.168,21c0.993,0,1.949,0.263,2.436,0.67c0.24,0.201,0.369,0.49,0.392,0.885 c0.06,1.017-0.589,2.356-1.263,3.091c-0.264,0.209-0.706,0.27-1.217,0.338C25.358,25.994,25.199,26,25.038,26 c-0.856,0-1.738-0.16-2.555-0.463c-0.519-0.254-1.357-0.759-1.459-1.406l-0.004-0.025l-0.005-0.025 c-0.077-0.367,0.133-0.935,0.563-1.542C22.295,21.576,23.637,21,25.168,21 M25.168,20c-1.615,0-3.371,0.569-4.392,1.944 c-0.493,0.694-0.903,1.562-0.739,2.344c0.164,1.042,1.149,1.736,2.052,2.17C23.046,26.819,24.061,27,25.038,27 c0.195,0,0.389-0.007,0.581-0.022c0.657-0.087,1.313-0.174,1.806-0.608c1.231-1.302,2.38-4.167,0.821-5.469 C27.568,20.336,26.409,20,25.168,20L25.168,20z"/></g><path fill="#ba9b48" d="M13 20H17V21H13z"/><path fill="#ba9b48" d="M17,20c-1.75,0-2.306-4-5-4c0,0-2,0-2,2h1c0-0.917,1-1,1-1c2,0,2.25,4,5,4V20z"/><g><path fill="#b08159" d="M36.03,18.5c-0.221,0-0.404-0.047-0.543-0.14c0.004-0.007-2.183-2.146-2.771-2.735 c-0.468-0.468-0.187-1.792,0.964-2.943c0.728-0.729,1.612-1.182,2.308-1.182c0.275,0,0.487,0.072,0.631,0.216l2.666,2.671 c0.468,0.468,0.187,1.792-0.964,2.943C37.6,18.052,36.723,18.5,36.03,18.5L36.03,18.5z"/><path fill="#a16a4a" d="M35.987,12c0.13,0,0.234,0.026,0.277,0.069l2.667,2.67c0.194,0.194,0.031,1.241-0.964,2.237 C37.212,17.732,36.452,18,36.03,18c-0.086,0-0.162-0.011-0.217-0.032c-0.429-0.42-2.219-2.172-2.744-2.697 c-0.194-0.194-0.031-1.241,0.964-2.237C34.796,12.271,35.562,12,35.987,12 M35.987,11c-0.798,0-1.81,0.476-2.661,1.328 c-1.273,1.274-1.704,2.909-0.964,3.65c0.599,0.6,2.845,2.796,2.845,2.796C35.434,18.927,35.716,19,36.03,19 c0.794,0,1.796-0.468,2.644-1.317c1.273-1.275,1.704-2.909,0.964-3.65c0,0-1.926-1.929-2.667-2.67 C36.726,11.117,36.383,11,35.987,11L35.987,11z"/></g><path fill="#c74343" d="M16,34c-2.25,0-3.331-2.418-4.509-5.578c-0.003-0.007-0.005-0.014-0.008-0.021	c-0.309,0.133-0.609,0.286-0.89,0.476c0.198,0.53,0.403,1.076,0.627,1.616c0.81,1.892,1.863,3.781,3.662,4.34	c0.019,0.006,0.038,0.013,0.057,0.018c0.135,0.04,0.277,0.069,0.421,0.093c0.035,0.006,0.067,0.014,0.102,0.019	C15.636,34.986,15.814,35,16,35c1.246,0,2.179-0.651,2.912-1.619c-0.081-0.424-0.21-0.841-0.373-1.247	C17.897,33.227,17.089,34,16,34z"/><path fill="#ba9b48" d="M20,19h-1c0-1.476,0.096-2.89,0.798-3.458c0.619-0.5,1.505-0.566,2.202-0.542	c0.117,0.005,0.898,0,1,0v1c-0.113,0-0.87,0.005-1,0c-0.628-0.022-1.208,0-1.508,0.262C20.034,16.662,20,17.826,20,19z"/></svg>